# xmcd
#
# Track frame offsets:
#	150
#	15364
#	30284
#	41978
#	59414
#	76329
#	95776
#	111995
#	127394
#	141413
#	161863
#	178988
#	194517
#	210870
#	229387
#	259169
#
# Disc length: 3461 seconds
#
# Revision: 1
# Processed by: cddbd v1.5.2PL0 Copyright (c) Steve Scherf et al.
# Submitted via: audiograbber 1.83.01
#
DISCID=f00d8310
DTITLE=KeynoteKaraoke  - Gal Country Vol1 Disk2
DYEAR=1900
DGENRE=Karaoke
TTITLE0=Lee Ann Womack - Man with 18 Wheels
TTITLE1=Forsters Sisters - Men
TTITLE2=Martina McBride - My Baby Loves Me
TTITLE3=Dixie Chicks - Ready to Run
TTITLE4=Lee Ann Womack - Something Worth Leaving Behind
TTITLE5=Faith Hill - That's How Love Moves
TTITLE6=Martina McBride - There You  Are
TTITLE7=Cyndi Thomson - What I Really Meant to Say
TTITLE8=Jamie O Neal - When I Think About Angels
TTITLE9=Martina McBride - Where Would You Be
TTITLE10=Jessica Andrews - Who I Am 
TTITLE11=The Judds - Why Not Me
TTITLE12=Lee Ann Womack - Why They Call It Falling
TTITLE13=Kellie Coffey - Why Wyoming
TTITLE14=Patty Loveless - You Don't Even Know Who I Am
TTITLE15=Datab Track - Data Track
EXTD=
EXTT0=
EXTT1=
EXTT2=
EXTT3=
EXTT4=
EXTT5=
EXTT6=
EXTT7=
EXTT8=
EXTT9=
EXTT10=
EXTT11=
EXTT12=
EXTT13=
EXTT14=
EXTT15=
PLAYORDER=
